<svg height="600" viewBox="0 0 900 600" width="900" xmlns="http://www.w3.org/2000/svg"><g stroke-linejoin="bevel"><path d="m470 319 29-95-77 53z" fill="#277297" stroke="#277297"/><path d="m470 319 109-33-80-62z" fill="#277297" stroke="#277297"/><path d="m499 224-132-5 55 58z" fill="#15384f" stroke="#15384f"/><path d="m373 382 160-2-63-61z" fill="#15384f" stroke="#15384f"/><path d="m470 319 63 61 46-94z" fill="#0c2435" stroke="#0c2435"/><path d="m322 299 51 83 49-105z" fill="#112e42" stroke="#112e42"/><path d="m422 277-49 105 97-63z" fill="#112e42" stroke="#112e42"/><path d="m367 219-45 80 100-22z" fill="#00101c" stroke="#00101c"/><path d="m579 286 52-84-132 22z" fill="#1d4e6b" stroke="#1d4e6b"/><path d="m402 99-73 69 38 51z" fill="#112e42" stroke="#112e42"/><path d="m666 302-35-100-52 84z" fill="#081a28" stroke="#081a28"/><path d="m402 99-35 120 132 5z" fill="#19435d" stroke="#19435d"/><path d="m367 219-38-51-7 131z" fill="#19435d" stroke="#19435d"/><path d="m464 62-62 37 97 125z" fill="#081a28" stroke="#081a28"/><path d="m631 202-32-71-100 93z" fill="#1d4e6b" stroke="#1d4e6b"/><path d="m626 400 40-98-87-16z" fill="#15384f" stroke="#15384f"/><path d="m567 470 59-70-93-20z" fill="#246688" stroke="#246688"/><path d="m533 380 93 20-47-114z" fill="#19435d" stroke="#19435d"/><path d="m599 131-135-69 35 162z" fill="#1d4e6b" stroke="#1d4e6b"/><path d="m489 499 78-29-34-90z" fill="#0c2435" stroke="#0c2435"/><path d="m365 0-50 109 87-10z" fill="#205a7a" stroke="#205a7a"/><path d="m402 99-87 10 14 59z" fill="#1d4e6b" stroke="#1d4e6b"/><path d="m178 188 50 147 94-36z" fill="#19435d" stroke="#19435d"/><path d="m373 382 116 117 44-119z" fill="#1d4e6b" stroke="#1d4e6b"/><path d="m322 299-9 138 60-55z" fill="#1d4e6b" stroke="#1d4e6b"/><path d="m373 382 39 142 77-25z" fill="#277297" stroke="#277297"/><path d="m228 335 85 102 9-138z" fill="#112e42" stroke="#112e42"/><path d="m631 202 64-14-96-57z" fill="#297ea6" stroke="#297ea6"/><path d="m666 302 29-114-64 14z" fill="#297ea6" stroke="#297ea6"/><path d="m567 470 93-32-34-38z" fill="#205a7a" stroke="#205a7a"/><path d="m626 400 134 3-94-101z" fill="#1d4e6b" stroke="#1d4e6b"/><path d="m666 302 112-19-83-95z" fill="#277297" stroke="#277297"/><path d="m678 521-18-83-93 32z" fill="#00101c" stroke="#00101c"/><path d="m178 188 144 111 7-131z" fill="#081a28" stroke="#081a28"/><path d="m313 437 99 87-39-142z" fill="#1d4e6b" stroke="#1d4e6b"/><path d="m572 0h-75l-33 62z" fill="#112e42" stroke="#112e42"/><path d="m464 62-99-62 37 99z" fill="#19435d" stroke="#19435d"/><path d="m572 0-108 62 135 69z" fill="#0c2435" stroke="#0c2435"/><path d="m679 67-107-67 27 131z" fill="#15384f" stroke="#15384f"/><path d="m695 188-16-121-80 64z" fill="#205a7a" stroke="#205a7a"/><path d="m497 0h-132l99 62z" fill="#112e42" stroke="#112e42"/><path d="m197 427 68 43 48-33z" fill="#081a28" stroke="#081a28"/><path d="m313 437-48 33 147 54z" fill="#19435d" stroke="#19435d"/><path d="m164 77 14 111 137-79z" fill="#205a7a" stroke="#205a7a"/><path d="m315 109-137 79 151-20z" fill="#277297" stroke="#277297"/><path d="m228 335-31 92 116 10z" fill="#15384f" stroke="#15384f"/><path d="m760 403 18-120-112 19z" fill="#1d4e6b" stroke="#1d4e6b"/><path d="m695 188 73-124-89 3z" fill="#19435d" stroke="#19435d"/><path d="m365 0h-43l-7 109z" fill="#0c2435" stroke="#0c2435"/><path d="m783 486-23-83-100 35z" fill="#081a28" stroke="#081a28"/><path d="m660 438 100-35-134-3z" fill="#297ea6" stroke="#297ea6"/><path d="m116 273 81 154 31-92z" fill="#0c2435" stroke="#0c2435"/><path d="m610 600 68-79-111-51z" fill="#00101c" stroke="#00101c"/><path d="m610 600-43-130-78 29z" fill="#081a28" stroke="#081a28"/><path d="m367 600h99l-54-76z" fill="#277297" stroke="#277297"/><path d="m412 524 54 76 23-101z" fill="#1d4e6b" stroke="#1d4e6b"/><path d="m367 600 45-76-81 76z" fill="#15384f" stroke="#15384f"/><path d="m900 238-95-27-27 72z" fill="#081a28" stroke="#081a28"/><path d="m778 283 27-72-110-23z" fill="#00101c" stroke="#00101c"/><path d="m768 64-78-64-11 67z" fill="#277297" stroke="#277297"/><path d="m679 67 11-67h-118z" fill="#00101c" stroke="#00101c"/><path d="m197 427 19 76 49-33z" fill="#19435d" stroke="#19435d"/><path d="m331 600 81-76-147-54z" fill="#1d4e6b" stroke="#1d4e6b"/><path d="m178 188-62 85 112 62z" fill="#112e42" stroke="#112e42"/><path d="m197 427-76 94 95-18z" fill="#277297" stroke="#277297"/><path d="m805 211-37-147-73 124z" fill="#297ea6" stroke="#297ea6"/><path d="m466 600h144l-121-101z" fill="#246688" stroke="#246688"/><path d="m216 503 115 97-66-130z" fill="#297ea6" stroke="#297ea6"/><path d="m322 0-158 77 151 32z" fill="#19435d" stroke="#19435d"/><path d="m178 188-76 47 14 38z" fill="#1d4e6b" stroke="#1d4e6b"/><path d="m125 135-23 100 76-47z" fill="#1d4e6b" stroke="#1d4e6b"/><path d="m164 77-39 58 53 53z" fill="#00101c" stroke="#00101c"/><path d="m678 521 105-35-123-48z" fill="#205a7a" stroke="#205a7a"/><path d="m900 312v-74l-122 45z" fill="#19435d" stroke="#19435d"/><path d="m705 600 78-114-105 35z" fill="#19435d" stroke="#19435d"/><path d="m322 0h-154l-4 77z" fill="#112e42" stroke="#112e42"/><path d="m164 77-97-77 58 135z" fill="#19435d" stroke="#19435d"/><path d="m610 600h95l-27-79z" fill="#297ea6" stroke="#297ea6"/><path d="m900 0h-101l-31 64z" fill="#00101c" stroke="#00101c"/><path d="m768 64 31-64h-109z" fill="#1d4e6b" stroke="#1d4e6b"/><path d="m0 391 79 46 37-164z" fill="#15384f" stroke="#15384f"/><path d="m116 273-37 164 118-10z" fill="#246688" stroke="#246688"/><path d="m216 503-22 97h137z" fill="#19435d" stroke="#19435d"/><path d="m900 312-122-29-18 120z" fill="#081a28" stroke="#081a28"/><path d="m805 211 95-80-132-67z" fill="#00101c" stroke="#00101c"/><path d="m900 409v-97l-140 91z" fill="#081a28" stroke="#081a28"/><path d="m79 437 42 84 76-94z" fill="#0c2435" stroke="#0c2435"/><path d="m121 521 73 79 22-97z" fill="#0c2435" stroke="#0c2435"/><path d="m900 238v-107l-95 80z" fill="#205a7a" stroke="#205a7a"/><path d="m900 473v-64l-117 77z" fill="#112e42" stroke="#112e42"/><path d="m783 486 117-77-140-6z" fill="#081a28" stroke="#081a28"/><path d="m705 600h86l-8-114z" fill="#081a28" stroke="#081a28"/><path d="m0 536 87 64 34-79z" fill="#0c2435" stroke="#0c2435"/><path d="m102 235-102 52 116-14z" fill="#1d4e6b" stroke="#1d4e6b"/><path d="m0 202v85l102-52z" fill="#0c2435" stroke="#0c2435"/><path d="m0 202 102 33 23-100z" fill="#277297" stroke="#277297"/><path d="m900 600v-127l-117 13z" fill="#277297" stroke="#277297"/><path d="m0 120v82l125-67z" fill="#112e42" stroke="#112e42"/><path d="m168 0h-101l97 77z" fill="#1d4e6b" stroke="#1d4e6b"/><path d="m0 287v104l116-118z" fill="#112e42" stroke="#112e42"/><path d="m121 521-34 79h107z" fill="#19435d" stroke="#19435d"/><path d="m67 0-67 120 125 15z" fill="#00101c" stroke="#00101c"/><path d="m900 131v-131l-132 64z" fill="#00101c" stroke="#00101c"/><path d="m0 536 121-15-42-84z" fill="#205a7a" stroke="#205a7a"/><path d="m791 600h109l-117-114z" fill="#19435d" stroke="#19435d"/><path d="m67 0h-67v120z" fill="#297ea6" stroke="#297ea6"/><path d="m0 391v145l79-99z" fill="#246688" stroke="#246688"/><path d="m0 536v64h87z" fill="#00101c" stroke="#00101c"/></g></svg>