<svg height="600" viewBox="0 0 900 600" width="900" xmlns="http://www.w3.org/2000/svg"><path d="m0 73h82v-42h82v6h81v42h82v-12h82v-6h82v-12h82v-12h82v36h81v12h82v-24h82v12-73h-82-82-81-82-82-82-82-82-81-82-82z" fill="#fa7268"/><path d="m0 211h82v-72h82v42h81v-60h82v42h82v-12h82v24h82v-78h82v54h81v-12h82v-30h82v18-56-12h-82v24h-82v-12h-81v-36h-82v12h-82v12h-82v6h-82v12h-82v-42h-81v-6h-82v42h-82z" fill="#ed6266"/><path d="m0 379h82v-132h82v132h81v-66h82v6h82v-48h82v-12h82v12h82v48h81v-90h82v120h82v18-242-18h-82v30h-82v12h-81v-54h-82v78h-82v-24h-82v12h-82v-42h-82v60h-81v-42h-82v72h-82z" fill="#df5265"/><path d="m0 469h82v-48h82v60h81v-72h82v84h82v-24h82v18h82v36h82v-60h81v-12h82v24h82v12-122-18h-82v-120h-82v90h-81v-48h-82v-12h-82v12h-82v48h-82v-6h-82v66h-81v-132h-82v132h-82z" fill="#d04263"/><path d="m0 535h82v-42h82v54h81v-48h82v36h82v-36h82v30h82v24h82v-42h81v18h82v12h82v-6-50-12h-82v-24h-82v12h-81v60h-82v-36h-82v-18h-82v24h-82v-84h-82v72h-81v-60h-82v48h-82z" fill="#c13361"/><path d="m0 601h82 82 81 82 82 82 82 82 81 82 82v-68 6h-82v-12h-82v-18h-81v42h-82v-24h-82v-30h-82v36h-82v-36h-82v48h-81v-54h-82v42h-82z" fill="#b0235f"/></svg>